<svg xmlns="http://www.w3.org/2000/svg" viewBox="0 0 64 64" role="img" aria-label="Flame favicon">
  <rect width="64" height="64" rx="14" fill="#111827"/>
  <path fill="#f97316" d="M34.7 6.8c1.5 8.1 7.7 12.7 11.8 18.5 3 4.2 4.8 8.8 4.8 14.2 0 11-8.5 19.7-19.3 19.7S12.7 50.5 12.7 39.5c0-8.5 5.1-15.1 10.4-20.5.2 6.2 2.1 9.7 5.3 12.5-.7-8.1 1.3-16.4 6.3-24.7Z"/>
  <path fill="#facc15" d="M38.7 35.4c2.1 2.9 3.1 5.4 3.1 8.3 0 5.6-4.3 10.2-9.8 10.2s-9.8-4.6-9.8-10.2c0-4.5 2.7-8 5.7-11.3.1 3.2 1.1 5.2 2.8 6.8-.3-4.9 1.1-9.8 4.1-14.3.6 4.1 2.4 7.3 3.9 10.5Z"/>
  <path fill="#fff" fill-opacity=".18" d="M18 11h28a8 8 0 0 1 8 8v4c-8.3-5.4-19-8.5-32-8.5-4 0-7.7.3-11 .9A8 8 0 0 1 18 11Z"/>
</svg>
